<svg xmlns="http://www.w3.org/2000/svg" viewBox="-1 -1 71.4 86.2" fill="#3EB1C8">
  <path fill-rule="evenodd" d="M69.43,26.46c0-2.87-1.43-5.54-3.82-7.13L39.46,1.92C36.58,0,32.85,0,29.97,1.92L3.82,19.33C1.43,20.93,0,23.59,0,26.46V79.03h.07v2.48a2.7,2.7,0,0,0,2.7,2.7H7.84a2.7,2.7,0,0,0,2.7-2.7V60.38c0-4.99,3.7-9.36,8.67-9.83,5.7-.54,10.51,3.96,10.51,9.55V71.17c0,7.2,5.84,13.04,13.04,13.04H62.04l7.39,0ZM40.19,71.17V60.55c0-10.65-8.12-19.79-18.75-20.47-3.96-.26-7.7.68-10.9,2.43V27.31l24.22-16.25L59.2,27.36V73.74H42.77a2.58,2.58,0,0,1-2.58-2.58Z"/>
</svg>
